<svg xmlns="http://www.w3.org/2000/svg" width="1696" height="263" fill="none"><path fill="#fff" d="M642.329 143.563a3.736 3.736 0 0 1-2.56-1.46 3.747 3.747 0 0 1-.255-4.172c.25-.427.581-.8.975-1.098l35.81-27.26-35.34-27.86a3.767 3.767 0 0 1-.63-5.28 3.764 3.764 0 0 1 5.28-.63l39.16 30.86c.91.72 1.44 1.82 1.43 2.99 0 1.16-.56 2.26-1.48 2.96l-39.67 30.2c-.81.61-1.78.85-2.72.74v.01Z"/><path fill="#fff" d="M682.669 143.833a3.736 3.736 0 0 1-2.56-1.46 3.747 3.747 0 0 1-.255-4.172c.249-.427.581-.8.975-1.098l35.81-27.26-35.34-27.86a3.767 3.767 0 0 1-.63-5.28 3.764 3.764 0 0 1 5.28-.63l39.16 30.86c.91.72 1.44 1.82 1.43 2.99 0 1.16-.56 2.26-1.48 2.96l-39.67 30.2c-.81.61-1.78.85-2.72.74v.01ZM110.474 155.19V94.807c0-7.915-3.55-11.862-10.649-11.862-6.283 0-12.627 1.52-19.023 4.539V155.2H55.323V94.817c0-7.915-3.549-11.862-10.648-11.862-6.518 0-12.913 1.57-19.196 4.712v67.543H0V66.034h20.94l2.264 8.547c6.171-4.07 11.72-6.956 16.667-8.64a47.052 47.052 0 0 1 15.269-2.529c10.475 0 17.86 3.723 22.164 11.169 5.936-3.957 11.516-6.803 16.758-8.547a51.019 51.019 0 0 1 16.228-2.622c8.139 0 14.453 2.275 18.941 6.804 4.478 4.538 6.722 10.883 6.722 19.022v65.972h-25.479v-.02Zm62.993-102.967c-4.426 0-7.966-1.224-10.648-3.662-2.683-2.447-4.009-5.762-4.009-9.944 0-4.182 1.336-7.507 4.009-9.945 2.672-2.448 6.222-3.672 10.648-3.672 4.427 0 7.966 1.224 10.649 3.672 2.672 2.438 4.018 5.763 4.018 9.945s-1.336 7.507-4.018 9.944c-2.683 2.438-6.222 3.662-10.649 3.662ZM160.728 155.19V66.013h25.479v89.177h-25.479Zm107.852 0V96.725c0-4.774-1.051-8.262-3.142-10.475-2.091-2.204-5.293-3.315-9.598-3.315-6.395 0-12.739 1.978-19.022 5.936v66.319h-25.479V66.013h20.94l2.438 9.598c10.475-8.14 21.644-12.22 33.506-12.22 8.262 0 14.626 2.245 19.114 6.723 4.478 4.477 6.722 10.852 6.722 19.114V155.2H268.58v-.01Zm63.004-102.967c-4.427 0-7.966-1.224-10.649-3.662-2.682-2.447-4.008-5.762-4.008-9.944 0-4.182 1.336-7.507 4.008-9.945 2.673-2.448 6.222-3.672 10.649-3.672 4.427 0 7.966 1.224 10.648 3.672 2.673 2.438 4.019 5.763 4.019 9.945s-1.336 7.507-4.019 9.944c-2.682 2.438-6.221 3.662-10.648 3.662Zm-12.74 102.967V66.013h25.479v89.177h-25.479Z"/><path fill="url(#a)" d="M510.467 155.187 467.536 34.248h28.967l28.274 95.287 28.101-95.286h28.273L538.22 155.187h-27.753Z"/><path fill="url(#b)" d="M396.159 155.187V55.189h-36.822v-20.94h99.825v20.94h-36.821v99.998h-26.182Z"/><path fill="#fff" fill-rule="evenodd" d="M67.97 174.884v1.234c.154 1.051.715 2.173 1.765 3.203C123.457 231.595 194.427 263 273.241 263c56.241 0 121.55-19.053 166.592-54.875 7.446-5.957 1.071-14.83-6.538-11.363-50.499 23.093-105.373 34.272-155.322 34.272-74.009 0-145.672-21.889-203.607-58.221-1.05-.652-2.04-.938-2.907-.938-1.877 0-3.223 1.295-3.488 3.009Z" clip-rule="evenodd"/><path fill="#fff" fill-rule="evenodd" d="M402.676 180.525c-1.601 1.214-2.448 2.601-2.601 3.784v.734c.184 1.367 1.469 2.285 3.713 2 14.494-1.877 46.827-6.029 52.59 1.907 5.762 7.925-6.406 40.585-11.832 55.13-1.632 4.385 1.887 6.191 5.589 2.835 24.184-21.695 30.416-67.175 25.459-73.734-2.366-3.141-13.454-6.089-27.193-6.089-14.687 0-32.394 3.356-45.715 13.413" clip-rule="evenodd"/><path fill="#3C8CF0" d="M893 218c60.199 0 109-48.801 109-109 0-60.2-48.801-109-109-109S784 48.8 784 109c0 60.199 48.801 109 109 109Z"/><path fill="#fff" d="m866.738 58.222 84.397 49.593a1.704 1.704 0 0 1 0 2.94l-84.397 49.034c-1.137.655-2.564-.164-2.564-1.475V59.687c0-1.32 1.436-2.14 2.564-1.465ZM1061.32 66.542l37.74 40.887 37.62-40.887c2.75-3.018 4.06-3.934 5.64-3.934 2.11 0 3.15 1.707 3.15 4.985v84.666c0 2.227-.92 3.403-3.41 3.403h-15.86c-2.36 0-3.53-1.176-3.53-3.403v-39.576l-18.75 21.365c-2.48 2.622-3.53 3.538-4.98 3.538-1.45 0-2.62-.916-4.85-3.538l-18.74-21.365v39.576c0 2.488-1.05 3.403-3.54 3.403h-15.86c-2.23 0-3.4-1.176-3.4-3.403V67.593c0-3.143 1.05-4.985 3.14-4.985 1.57 0 3.14 1.177 5.64 3.934h-.01Zm95.15-.79c0-1.177 1.17-1.832 2.88-1.832h19.79c3.28 0 4.33.655 6.3 3.798l15.34 24.507 15.99-25.027c1.71-2.748 2.88-3.278 5.9-3.278h19.14c1.83 0 2.75.52 2.75 1.706 0 .395-.26 1.176-.8 2.102l-28.04 41.542 28.7 42.594c.52.79.79 1.446.79 1.967 0 1.176-1.18 1.831-2.75 1.831h-19.79c-3.28 0-4.33-.655-6.3-3.798l-16.25-25.163-16.51 25.693c-1.71 2.748-2.75 3.278-5.77 3.278h-19.14c-1.96 0-2.88-.656-2.88-1.832 0-.52.26-1.176.79-1.966l28.7-42.334-28.04-41.812c-.52-.79-.79-1.446-.79-1.967l-.01-.01Zm131.98-1.832c24.11 0 35.78 10.219 35.78 28.7 0 18.482-13.1 30.013-37.09 30.013h-14.15c-.92 0-1.31.395-1.31 1.311v29.096c0 2.102-.66 2.622-2.63 2.622h-3.28c-1.96 0-2.62-.52-2.62-2.622V66.542c0-2.102.66-2.622 2.62-2.622h22.68Zm-.66 8.387h-14.8c-.92 0-1.31.395-1.31 1.311v39.316c0 .916.39 1.311 1.31 1.311h14.8c16.91 0 27.39-6.941 27.39-21.23 0-14.287-9.69-20.708-27.39-20.708Zm54.66-8.387c1.97 0 2.62.52 2.62 2.622v79.422c0 .916.4 1.311 1.31 1.311h41.16c1.97 0 2.62.52 2.62 2.622v3.143c0 2.102-.65 2.622-2.62 2.622h-48.36c-1.97 0-2.62-.52-2.62-2.622V66.542c0-2.102.65-2.622 2.62-2.622h3.28-.01Zm106.29 4.849 38.66 83.095c.4 1.051.66 1.706.66 2.102 0 1.176-.92 1.706-2.63 1.706h-2.74c-2.63 0-3.41-.656-4.85-3.798l-12.45-27.265c-.52-1.176-.92-1.571-2.36-1.571h-37.75c-1.44 0-1.83.395-2.36 1.571l-12.44 27.265c-1.45 3.142-2.23 3.798-4.85 3.798h-2.37c-1.7 0-2.62-.521-2.62-1.706 0-.396.26-1.051.66-2.102l38.4-83.095c2.36-5.11 3.14-6.42 4.59-6.42 1.17 0 2.1 1.31 4.45 6.42Zm11.41 44.29-16-34.861-15.98 34.861c-.26.521-.4.916-.4 1.176 0 .521.4.656 1.31.656h30.15c.92 0 1.31-.135 1.31-.656 0-.26-.13-.655-.39-1.176Zm14.15-47.828c0-.916.79-1.311 2.36-1.311h3.4c2.63 0 3.28.395 4.85 3.017l26.87 45.872 27-45.872c1.57-2.622 2.22-3.017 4.85-3.017h3.14c1.44 0 2.23.395 2.23 1.31 0 .521-.14 1.052-.52 1.707l-32.5 53.739v32.374c0 2.101-.66 2.622-2.63 2.622h-3.27c-1.97 0-2.63-.521-2.63-2.622v-31.719l-32.5-54.394c-.39-.655-.65-1.31-.65-1.706Zm136.56-1.311c1.97 0 2.62.52 2.62 2.622v3.143c0 2.102-.65 2.622-2.62 2.622h-39.71c-.92 0-1.31.395-1.31 1.311v30.408c0 .916.39 1.311 1.31 1.311h35.26c1.96 0 2.62.521 2.62 2.622v3.018c0 2.102-.66 2.622-2.62 2.622h-35.26c-.92 0-1.31.395-1.31 1.311v31.063c0 .916.39 1.311 1.31 1.311H1611c1.96 0 2.62.521 2.62 2.623v3.143c0 2.101-.66 2.622-2.62 2.622h-47.05c-1.97 0-2.62-.521-2.62-2.622V66.552c0-2.102.65-2.623 2.62-2.623h46.92l-.01-.01Zm42.86 0c24.11 0 35.77 9.563 35.77 27.264 0 13.237-6.94 21.364-19 24.903l23.85 35.777c.66 1.176 1.05 1.967 1.05 2.487 0 .916-.91 1.311-2.74 1.311h-3.28c-2.63 0-3.28-.52-5.25-3.278l-21.1-32.113c-.92-1.437-1.71-1.707-3.4-1.707h-21.37c-.91 0-1.31.396-1.31 1.311v33.155c0 2.102-.66 2.623-2.62 2.623h-3.28c-1.97 0-2.62-.521-2.62-2.623V66.532c0-2.101.65-2.622 2.62-2.622h22.68v.01Zm-.66 8.387h-14.81c-.91 0-1.31.395-1.31 1.311v35.517c0 .916.4 1.312 1.31 1.312h16.12c17.17 0 26.08-5.901 26.08-19.138 0-13.236-9.7-19.002-27.39-19.002Z"/><defs><linearGradient id="a" x1="467.536" x2="581.151" y1="94.723" y2="94.723" gradientUnits="userSpaceOnUse"><stop stop-color="#D31C54"/><stop offset="1" stop-color="#E50C85"/></linearGradient><linearGradient id="b" x1="359.327" x2="459.162" y1="-438.378" y2="-438.378" gradientUnits="userSpaceOnUse"><stop stop-color="#D31C54"/><stop offset="1" stop-color="#E50C85"/></linearGradient></defs></svg>